<svg width="100%" height="100%" viewBox="0 0 16 16" fill="none" xmlns="http://www.w3.org/2000/svg">
<mask id="mask0_1584_7314" style="mask-type:alpha" maskUnits="userSpaceOnUse" x="0" y="0" width="100%" height="100%">
<rect width="100%" height="100%" fill="#D9D9D9"/>
</mask>
<g mask="url(#mask0_1584_7314)">
<path d="M7.06659 11.0667L11.7666 6.36668L10.8333 5.43334L7.06659 9.20001L5.16658 7.30001L4.23325 8.23334L7.06659 11.0667ZM7.99992 14.6667C7.0777 14.6667 6.21103 14.4917 5.39992 14.1417C4.58881 13.7917 3.88325 13.3167 3.28325 12.7167C2.68325 12.1167 2.20825 11.4111 1.85825 10.6C1.50825 9.7889 1.33325 8.92223 1.33325 8.00001C1.33325 7.07779 1.50825 6.21112 1.85825 5.40001C2.20825 4.5889 2.68325 3.88334 3.28325 3.28334C3.88325 2.68334 4.58881 2.20834 5.39992 1.85834C6.21103 1.50834 7.0777 1.33334 7.99992 1.33334C8.92214 1.33334 9.78881 1.50834 10.5999 1.85834C11.411 2.20834 12.1166 2.68334 12.7166 3.28334C13.3166 3.88334 13.7916 4.5889 14.1416 5.40001C14.4916 6.21112 14.6666 7.07779 14.6666 8.00001C14.6666 8.92223 14.4916 9.7889 14.1416 10.6C13.7916 11.4111 13.3166 12.1167 12.7166 12.7167C12.1166 13.3167 11.411 13.7917 10.5999 14.1417C9.78881 14.4917 8.92214 14.6667 7.99992 14.6667Z" fill="#1C1B1F"/>
</g>
</svg>
