<svg width="100%" height="100%" viewBox="0 0 16 16" fill="none" xmlns="http://www.w3.org/2000/svg">
<mask id="mask0_1584_7313" style="mask-type:alpha" maskUnits="userSpaceOnUse" x="0" y="0" width="100%" height="100%">
<rect width="100%" height="100%" fill="#D9D9D9"/>
</mask>
<g mask="url(#mask0_1584_7313)">
<path d="M7.96658 12C8.19992 12 8.39714 11.9195 8.55825 11.7583C8.71936 11.5972 8.79992 11.4 8.79992 11.1667C8.79992 10.9333 8.71936 10.7361 8.55825 10.575C8.39714 10.4139 8.19992 10.3333 7.96658 10.3333C7.73325 10.3333 7.53603 10.4139 7.37492 10.575C7.21381 10.7361 7.13325 10.9333 7.13325 11.1667C7.13325 11.4 7.21381 11.5972 7.37492 11.7583C7.53603 11.9195 7.73325 12 7.96658 12ZM7.36659 9.43334H8.59992C8.59992 9.06668 8.64159 8.77779 8.72492 8.56668C8.80825 8.35557 9.04436 8.06668 9.43325 7.70001C9.72214 7.41112 9.94992 7.13612 10.1166 6.87501C10.2833 6.6139 10.3666 6.30001 10.3666 5.93334C10.3666 5.31112 10.1388 4.83334 9.68325 4.50001C9.2277 4.16668 8.68881 4.00001 8.06659 4.00001C7.43325 4.00001 6.91936 4.16668 6.52492 4.50001C6.13047 4.83334 5.85547 5.23334 5.69992 5.70001L6.79992 6.13334C6.85547 5.93334 6.98047 5.71668 7.17492 5.48334C7.36936 5.25001 7.66658 5.13334 8.06659 5.13334C8.42214 5.13334 8.68881 5.23057 8.86658 5.42501C9.04436 5.61945 9.13325 5.83334 9.13325 6.06668C9.13325 6.2889 9.06659 6.49723 8.93325 6.69168C8.79992 6.88612 8.63325 7.06668 8.43325 7.23334C7.94436 7.66668 7.64436 7.99445 7.53325 8.21668C7.42214 8.4389 7.36659 8.84445 7.36659 9.43334ZM7.99992 14.6667C7.0777 14.6667 6.21103 14.4917 5.39992 14.1417C4.58881 13.7917 3.88325 13.3167 3.28325 12.7167C2.68325 12.1167 2.20825 11.4111 1.85825 10.6C1.50825 9.7889 1.33325 8.92223 1.33325 8.00001C1.33325 7.07779 1.50825 6.21112 1.85825 5.40001C2.20825 4.5889 2.68325 3.88334 3.28325 3.28334C3.88325 2.68334 4.58881 2.20834 5.39992 1.85834C6.21103 1.50834 7.0777 1.33334 7.99992 1.33334C8.92214 1.33334 9.78881 1.50834 10.5999 1.85834C11.411 2.20834 12.1166 2.68334 12.7166 3.28334C13.3166 3.88334 13.7916 4.5889 14.1416 5.40001C14.4916 6.21112 14.6666 7.07779 14.6666 8.00001C14.6666 8.92223 14.4916 9.7889 14.1416 10.6C13.7916 11.4111 13.3166 12.1167 12.7166 12.7167C12.1166 13.3167 11.411 13.7917 10.5999 14.1417C9.78881 14.4917 8.92214 14.6667 7.99992 14.6667Z" fill="#1C1B1F"/>
</g>
</svg>
