<svg width="100%" height="100%" viewBox="0 0 16 16" fill="none" xmlns="http://www.w3.org/2000/svg">
<mask id="mask0_1584_7321" style="mask-type:alpha" maskUnits="userSpaceOnUse" x="0" y="0" width="100%" height="100%">
<rect width="100%" height="100%" fill="#D9D9D9"/>
</mask>
<g mask="url(#mask0_1584_7321)">
<path d="M8.00002 8.00002C7.26669 8.00002 6.63891 7.73891 6.11669 7.21669C5.59446 6.69446 5.33335 6.06669 5.33335 5.33335C5.33335 4.60002 5.59446 3.97224 6.11669 3.45002C6.63891 2.9278 7.26669 2.66669 8.00002 2.66669C8.73335 2.66669 9.36113 2.9278 9.88335 3.45002C10.4056 3.97224 10.6667 4.60002 10.6667 5.33335C10.6667 6.06669 10.4056 6.69446 9.88335 7.21669C9.36113 7.73891 8.73335 8.00002 8.00002 8.00002ZM2.66669 13.3334V11.4667C2.66669 11.0889 2.76391 10.7417 2.95835 10.425C3.1528 10.1084 3.41113 9.86669 3.73335 9.70002C4.42224 9.35557 5.12224 9.09724 5.83335 8.92502C6.54446 8.7528 7.26669 8.66669 8.00002 8.66669C8.73335 8.66669 9.45557 8.7528 10.1667 8.92502C10.8778 9.09724 11.5778 9.35557 12.2667 9.70002C12.5889 9.86669 12.8472 10.1084 13.0417 10.425C13.2361 10.7417 13.3334 11.0889 13.3334 11.4667V13.3334H2.66669Z" fill="#1C1B1F"/>
</g>
</svg>
