<svg width="100%" height="100%" viewBox="0 0 16 16" fill="none" xmlns="http://www.w3.org/2000/svg">
<path d="M10.0467 7.5L9.44666 8.11333C8.96666 8.59333 8.66666 9 8.66666 10H7.33333V9.66666C7.33333 8.92666 7.63333 8.26 8.11333 7.78L8.93999 6.94C9.18666 6.7 9.33333 6.36667 9.33333 6C9.33333 5.64638 9.19285 5.30724 8.9428 5.05719C8.69275 4.80714 8.35362 4.66667 7.99999 4.66667C7.64637 4.66667 7.30723 4.80714 7.05719 5.05719C6.80714 5.30724 6.66666 5.64638 6.66666 6H5.33333C5.33333 5.29275 5.61428 4.61448 6.11438 4.11438C6.61447 3.61428 7.29275 3.33333 7.99999 3.33333C8.70724 3.33333 9.38552 3.61428 9.88561 4.11438C10.3857 4.61448 10.6667 5.29275 10.6667 6C10.6657 6.56216 10.4429 7.10122 10.0467 7.5ZM8.66666 12.6667H7.33333V11.3333H8.66666M7.99999 1.33333C7.12452 1.33333 6.25761 1.50577 5.44877 1.8408C4.63993 2.17583 3.90501 2.6669 3.28595 3.28595C2.03571 4.5362 1.33333 6.23189 1.33333 8C1.33333 9.76811 2.03571 11.4638 3.28595 12.714C3.90501 13.3331 4.63993 13.8242 5.44877 14.1592C6.25761 14.4942 7.12452 14.6667 7.99999 14.6667C9.7681 14.6667 11.4638 13.9643 12.714 12.714C13.9643 11.4638 14.6667 9.76811 14.6667 8C14.6667 4.31333 11.6667 1.33333 7.99999 1.33333Z" fill="#BBBBBB"/>
</svg>
