<svg width="100%" height="100%" viewBox="0 0 16 16" fill="none" xmlns="http://www.w3.org/2000/svg">
<path d="M15.0667 13.6L12.1335 10.6667C12.8668 9.6 13.3333 8.33335 13.3333 6.93335C13.3333 3.46668 10.4667 0.599995 7 0.599995C3.53333 0.599995 0.666668 3.46668 0.666668 6.93335C0.666668 10.4 3.53333 13.2667 7 13.2667C8.4 13.2667 9.66673 12.8 10.7334 12.0666L13.6667 15L15.0667 13.6ZM2.66667 7C2.66667 4.6 4.6 2.66667 7 2.66667C9.4 2.66667 11.3333 4.6 11.3333 7C11.3333 9.4 9.4 11.3333 7 11.3333C4.6 11.3333 2.66667 9.4 2.66667 7Z" fill="black"/>
</svg>
