<svg width="100%" height="100%" viewBox="0 0 16 16" fill="none" xmlns="http://www.w3.org/2000/svg">
<mask id="mask0_1584_7323" style="mask-type:alpha" maskUnits="userSpaceOnUse" x="0" y="0" width="100%" height="100%">
<rect width="100%" height="100%" fill="#D9D9D9"/>
</mask>
<g mask="url(#mask0_1584_7323)">
<path d="M4.33329 13.3333C3.32218 13.3333 2.45829 12.9833 1.74163 12.2833C1.02496 11.5833 0.666626 10.7278 0.666626 9.71667C0.666626 8.85 0.927737 8.07778 1.44996 7.4C1.97218 6.72223 2.65552 6.28889 3.49996 6.1C3.77774 5.07778 4.33329 4.25 5.16663 3.61667C5.99996 2.98334 6.94441 2.66667 7.99996 2.66667C9.29996 2.66667 10.4027 3.11945 11.3083 4.025C12.2139 4.93056 12.6666 6.03334 12.6666 7.33334C13.4333 7.42223 14.0694 7.75278 14.575 8.325C15.0805 8.89723 15.3333 9.56667 15.3333 10.3333C15.3333 11.1667 15.0416 11.875 14.4583 12.4583C13.875 13.0417 13.1666 13.3333 12.3333 13.3333H4.33329Z" fill="#1C1B1F"/>
</g>
</svg>
