<svg width="100%" height="100%" viewBox="0 0 16 16" fill="none" xmlns="http://www.w3.org/2000/svg">
<mask id="mask0_1586_7069" style="mask-type:alpha" maskUnits="userSpaceOnUse" x="0" y="0" width="16" height="16">
<rect width="16" height="16" fill="#D9D9D9"/>
</mask>
<g mask="url(#mask0_1586_7069)">
<path d="M4.66666 8.66667H11.3333V7.33333H4.66666V8.66667ZM7.99999 14.6667C7.07777 14.6667 6.21111 14.4917 5.39999 14.1417C4.58888 13.7917 3.88333 13.3167 3.28333 12.7167C2.68333 12.1167 2.20833 11.4111 1.85833 10.6C1.50833 9.78889 1.33333 8.92222 1.33333 8C1.33333 7.07778 1.50833 6.21111 1.85833 5.4C2.20833 4.58889 2.68333 3.88333 3.28333 3.28333C3.88333 2.68333 4.58888 2.20833 5.39999 1.85833C6.21111 1.50833 7.07777 1.33333 7.99999 1.33333C8.92222 1.33333 9.78888 1.50833 10.6 1.85833C11.4111 2.20833 12.1167 2.68333 12.7167 3.28333C13.3167 3.88333 13.7917 4.58889 14.1417 5.4C14.4917 6.21111 14.6667 7.07778 14.6667 8C14.6667 8.92222 14.4917 9.78889 14.1417 10.6C13.7917 11.4111 13.3167 12.1167 12.7167 12.7167C12.1167 13.3167 11.4111 13.7917 10.6 14.1417C9.78888 14.4917 8.92222 14.6667 7.99999 14.6667Z" fill="#1C1B1F"/>
</g>
</svg>
