<svg width="100%" height="100%" viewBox="0 0 16 16" fill="none" xmlns="http://www.w3.org/2000/svg">
<mask id="mask0_1584_7325" style="mask-type:alpha" maskUnits="userSpaceOnUse" x="0" y="0" width="100%" height="100%">
<rect width="100%" height="100%" fill="#D9D9D9"/>
</mask>
<g mask="url(#mask0_1584_7325)">
<path d="M8.00004 11.3333C8.18893 11.3333 8.34726 11.2694 8.47504 11.1416C8.60282 11.0139 8.66671 10.8555 8.66671 10.6666C8.66671 10.4778 8.60282 10.3194 8.47504 10.1916C8.34726 10.0639 8.18893 9.99998 8.00004 9.99998C7.81115 9.99998 7.65282 10.0639 7.52504 10.1916C7.39726 10.3194 7.33337 10.4778 7.33337 10.6666C7.33337 10.8555 7.39726 11.0139 7.52504 11.1416C7.65282 11.2694 7.81115 11.3333 8.00004 11.3333ZM7.33337 8.66665H8.66671V4.66665H7.33337V8.66665ZM8.00004 14.6666C7.07782 14.6666 6.21115 14.4916 5.40004 14.1416C4.58893 13.7916 3.88337 13.3166 3.28337 12.7166C2.68337 12.1166 2.20837 11.4111 1.85837 10.6C1.50837 9.78887 1.33337 8.9222 1.33337 7.99998C1.33337 7.07776 1.50837 6.21109 1.85837 5.39998C2.20837 4.58887 2.68337 3.88331 3.28337 3.28331C3.88337 2.68331 4.58893 2.20831 5.40004 1.85831C6.21115 1.50831 7.07782 1.33331 8.00004 1.33331C8.92226 1.33331 9.78893 1.50831 10.6 1.85831C11.4112 2.20831 12.1167 2.68331 12.7167 3.28331C13.3167 3.88331 13.7917 4.58887 14.1417 5.39998C14.4917 6.21109 14.6667 7.07776 14.6667 7.99998C14.6667 8.9222 14.4917 9.78887 14.1417 10.6C13.7917 11.4111 13.3167 12.1166 12.7167 12.7166C12.1167 13.3166 11.4112 13.7916 10.6 14.1416C9.78893 14.4916 8.92226 14.6666 8.00004 14.6666Z" fill="#1C1B1F"/>
</g>
</svg>
