<svg width="100%" height="100%" viewBox="0 0 16 16" fill="none" xmlns="http://www.w3.org/2000/svg">
<mask id="mask0_1584_7322" style="mask-type:alpha" maskUnits="userSpaceOnUse" x="0" y="0" width="100%" height="100%">
<rect width="100%" height="100%" fill="#D9D9D9"/>
</mask>
<g mask="url(#mask0_1584_7322)">
<path d="M4.00002 14.6667C3.63335 14.6667 3.31946 14.5361 3.05835 14.275C2.79724 14.0139 2.66669 13.7 2.66669 13.3334V6.66669C2.66669 6.30002 2.79724 5.98613 3.05835 5.72502C3.31946 5.46391 3.63335 5.33335 4.00002 5.33335H4.66669V4.00002C4.66669 3.0778 4.99169 2.29169 5.64169 1.64169C6.29169 0.991687 7.0778 0.666687 8.00002 0.666687C8.92224 0.666687 9.70835 0.991687 10.3584 1.64169C11.0084 2.29169 11.3334 3.0778 11.3334 4.00002V5.33335H12C12.3667 5.33335 12.6806 5.46391 12.9417 5.72502C13.2028 5.98613 13.3334 6.30002 13.3334 6.66669V13.3334C13.3334 13.7 13.2028 14.0139 12.9417 14.275C12.6806 14.5361 12.3667 14.6667 12 14.6667H4.00002ZM8.00002 11.3334C8.36669 11.3334 8.68057 11.2028 8.94169 10.9417C9.2028 10.6806 9.33335 10.3667 9.33335 10C9.33335 9.63335 9.2028 9.31947 8.94169 9.05835C8.68057 8.79724 8.36669 8.66669 8.00002 8.66669C7.63335 8.66669 7.31946 8.79724 7.05835 9.05835C6.79724 9.31947 6.66669 9.63335 6.66669 10C6.66669 10.3667 6.79724 10.6806 7.05835 10.9417C7.31946 11.2028 7.63335 11.3334 8.00002 11.3334ZM6.00002 5.33335H10V4.00002C10 3.44446 9.80557 2.97224 9.41669 2.58335C9.0278 2.19446 8.55557 2.00002 8.00002 2.00002C7.44446 2.00002 6.97224 2.19446 6.58335 2.58335C6.19446 2.97224 6.00002 3.44446 6.00002 4.00002V5.33335Z" fill="#1C1B1F"/>
</g>
</svg>
